# xmcd CD database file
#
# Track frame offsets:
#	150
#	21145
#	37105
#	52370
#	75075
#	84708
#	88503
#	106697
#	126515
#	148107
#	167425
#	181428
#	191268
#	209875
#	227440
#
# Disc length: 3875 seconds
#
# Revision: 0
# Processed by: cddbd v1.5PL3 Copyright (c) Steve Scherf et al.
# Submitted via: CDex 1.51
#
DISCID=c80f210f
DTITLE=THE KILLS - Keep On Your Mean Side
DYEAR=2004
DGENRE=Rock
TTITLE0=Superstition
TTITLE1=Cat Claw
TTITLE2=Pull A U
TTITLE3=Kissy Kissy
TTITLE4=Fried My Little Brains
TTITLE5=Hand
TTITLE6=Hitched
TTITLE7=Black Rooster
TTITLE8=Wait
TTITLE9=Fuck The People
TTITLE10=Monkey 23
TTITLE11=Gypsy Death and You
TTITLE12=Dropout Boogie
TTITLE13=Gum
TTITLE14=(data)
EXTD=YEAR: 2004
EXTT0=
EXTT1=
EXTT2=
EXTT3=
EXTT4=
EXTT5=
EXTT6=
EXTT7=
EXTT8=
EXTT9=
EXTT10=
EXTT11=
EXTT12=
EXTT13=
EXTT14=
PLAYORDER=
